<svg width="851" height="171" viewBox="0 0 851 171" fill="none" xmlns="http://www.w3.org/2000/svg">
<g clip-path="url(#clip0_126_231)">
<g clip-path="url(#clip1_126_231)">
<path d="M721 6.25C721 17.7875 712.408 27.3242 701.277 28.7969C700.555 23.3734 698.169 18.4781 694.645 14.6492C698.534 7.70234 705.969 3 714.5 3H717.75C719.548 3 721 4.45234 721 6.25ZM669 12.75C669 10.9523 670.452 9.5 672.25 9.5H675.5C688.063 9.5 698.25 19.6867 698.25 32.25V35.5V51.75C698.25 53.5477 696.798 55 695 55C693.202 55 691.75 53.5477 691.75 51.75V35.5C679.187 35.5 669 25.3133 669 12.75Z" fill="white"/>
</g>
<path d="M395.625 9.74983C387.642 9.74983 380.888 14.9803 378.593 22.1912C382.005 20.4647 385.855 19.4998 389.938 19.4998H398.875C399.769 19.4998 400.5 20.2311 400.5 21.1248C400.5 22.0186 399.769 22.7498 398.875 22.7498H397.25H389.938C388.252 22.7498 386.616 22.9428 385.032 23.2983C382.402 23.8975 379.964 24.9639 377.78 26.4162C371.89 30.3467 368 37.06 368 44.6873V46.3123C368 47.6631 369.087 48.7498 370.438 48.7498C371.788 48.7498 372.875 47.6631 372.875 46.3123V44.6873C372.875 39.7412 374.977 35.2928 378.339 32.1748C380.35 39.8428 387.327 45.4998 395.625 45.4998H395.727C409.143 45.4287 420 32.2053 420 15.9045C420 11.578 419.238 7.46468 417.857 3.75765C417.593 3.05686 416.567 3.08733 416.212 3.74749C414.302 7.32249 410.524 9.74983 406.188 9.74983H395.625Z" fill="white"/>
<path d="M67 22.7477C67 24.5454 68.4523 25.9977 70.25 25.9977C72.0477 25.9977 73.5 24.5454 73.5 22.7477C73.5 17.3649 77.8672 12.9977 83.25 12.9977H99.5V16.2477C99.5 17.5579 100.292 18.7462 101.511 19.254C102.73 19.7618 104.121 19.4774 105.055 18.5532L111.555 12.0532C112.825 10.7837 112.825 8.72196 111.555 7.45243L105.055 0.95243C104.121 0.0180555 102.73 -0.256163 101.511 0.251649C100.292 0.759462 99.5 1.93759 99.5 3.24774V6.49774H83.25C74.2719 6.49774 67 13.7696 67 22.7477ZM119 29.2477C119 27.4501 117.548 25.9977 115.75 25.9977C113.952 25.9977 112.5 27.4501 112.5 29.2477C112.5 34.6306 108.133 38.9977 102.75 38.9977H86.5V35.7477C86.5 34.4376 85.7078 33.2493 84.4891 32.7415C83.2703 32.2337 81.8789 32.5181 80.9445 33.4423L74.4445 39.9423C73.175 41.2118 73.175 43.2735 74.4445 44.5431L80.9445 51.0431C81.8789 51.9774 83.2703 52.2517 84.4891 51.7438C85.7078 51.236 86.5 50.0579 86.5 48.7376V45.4977H102.75C111.728 45.4977 119 38.2259 119 29.2477Z" fill="white"/>
</g>
<defs>
<clipPath id="clip0_126_231">
<rect width="750" height="170.613" fill="white"/>
</clipPath>
<clipPath id="clip1_126_231">
<rect width="52" height="52" fill="white" transform="translate(669 3)"/>
</clipPath>
</defs>
</svg>
